<?xml version="1.0" standalone="no"?>
<!DOCTYPE svg PUBLIC "-//W3C//DTD SVG 20010904//EN"
 "http://www.w3.org/TR/2001/REC-SVG-20010904/DTD/svg10.dtd">
<svg version="1.0" xmlns="http://www.w3.org/2000/svg"
 width="210.000000pt" height="210.000000pt" viewBox="0 0 210.000000 210.000000"
 preserveAspectRatio="xMidYMid meet">
<metadata>
Created by potrace 1.14, written by Peter Selinger 2001-2017
</metadata>
<g transform="translate(0.000000,210.000000) scale(0.100000,-0.100000)"
fill="#000000" stroke="none">
<path d="M1015 1890 c-34 -13 -57 -47 -57 -84 0 -87 92 -127 153 -67 56 56 30
142 -46 155 -17 2 -39 1 -50 -4z"/>
<path d="M615 1619 c-53 -9 -140 -43 -189 -72 -111 -68 -212 -217 -236 -350
-14 -78 -8 -195 13 -253 28 -76 35 -100 52 -174 43 -189 176 -357 351 -443 38
-19 83 -38 99 -42 17 -5 37 -10 45 -12 91 -24 293 -21 334 5 6 3 61 9 123 12
99 6 119 10 177 39 80 39 156 121 188 201 18 44 22 75 22 152 0 58 -5 102 -12
111 -23 27 -8 82 36 134 122 146 143 323 57 481 -101 186 -322 266 -526 189
-44 -17 -71 -22 -86 -16 -12 4 -57 11 -100 14 -43 3 -107 12 -143 20 -67 15
-136 16 -205 4z m343 -241 c2 -10 -7 -18 -24 -22 -40 -10 -83 -47 -109 -91
-27 -48 -49 -131 -38 -148 11 -18 12 -36 3 -42 -17 -10 -32 38 -31 97 1 102
54 184 137 213 45 16 58 15 62 -7z m-48 -148 c0 -11 -3 -20 -8 -20 -4 0 -18
-18 -32 -41 -42 -69 -89 -75 -54 -7 35 70 94 112 94 68z m-241 -51 c35 -16 50
-40 20 -32 -11 3 -22 9 -25 14 -3 5 -29 9 -59 9 l-53 0 8 -32 c5 -18 12 -44
16 -58 7 -23 6 -24 -10 -11 -21 18 -46 75 -46 107 0 17 6 23 28 26 33 4 80 -5
121 -23z m123 -211 c12 -10 14 -19 7 -37 -11 -28 -24 -20 -34 22 -8 29 2 34
27 15z m166 -35 c2 -8 -5 -13 -18 -13 -13 0 -24 -8 -27 -20 -6 -23 -14 -25
-31 -8 -16 16 -15 23 4 43 19 18 65 17 72 -2z m-336 -29 c46 -32 49 -40 7 -18
-33 17 -56 8 -47 -18 4 -10 109 -52 158 -63 16 -4 162 -19 196 -20 22 -1 45
-4 50 -6 9 -5 60 -4 99 3 13 2 20 -3 20 -12 0 -10 -9 -14 -25 -13 -14 1 -90 5
-170 8 -131 5 -154 9 -240 40 -52 19 -107 37 -122 40 -39 10 -68 -2 -68 -28
l-1 -22 -19 23 c-16 19 -18 28 -9 44 10 18 17 20 67 14 51 -6 55 -5 37 8 -16
12 -17 16 -6 30 18 22 29 20 73 -10z m99 -55 c23 -11 38 -23 35 -26 -8 -8 -86
27 -86 39 0 12 6 10 51 -13z m730 -95 c9 -11 8 -14 -7 -15 -11 -1 -23 -1 -28
0 -4 1 -14 -6 -21 -16 -15 -20 -29 -12 -39 24 -6 20 -3 21 38 21 27 0 50 -5
57 -14z"/>
<path d="M1933 1103 c-33 -6 -83 -68 -83 -104 0 -45 25 -84 65 -103 70 -34
155 20 155 98 0 64 -72 121 -137 109z"/>
<path d="M17 952 c-13 -15 -14 -22 -4 -42 14 -29 34 -33 59 -12 22 19 23 36 2
56 -20 21 -37 20 -57 -2z"/>
<path d="M1721 831 c-33 -29 -25 -77 14 -81 36 -4 46 0 54 23 10 26 -1 52 -28
66 -14 8 -24 6 -40 -8z"/>
<path d="M202 381 c-15 -42 9 -73 51 -69 71 7 63 98 -8 98 -27 0 -35 -5 -43
-29z"/>
</g>
</svg>
